<?xml version="1.0" encoding="utf-8"?>
<!-- Generator: Adobe Illustrator 27.0.0, SVG Export Plug-In . SVG Version: 6.00 Build 0)  -->
<svg version="1.1" id="Layer_1" xmlns="http://www.w3.org/2000/svg" xmlns:xlink="http://www.w3.org/1999/xlink" x="0px" y="0px"
	 viewBox="0 0 239.4 149.3" style="enable-background:new 0 0 239.4 149.3;" xml:space="preserve">
<style type="text/css">
	.st0{fill:#060707;}
	.st1{fill:#FF5A00;}
	.st2{fill:#FFFFFF;}
</style>
<g transform="translate(757.778 14610.639)">
	<path class="st0" d="M-588.5-14569.6v10h13.5v-10c0,0,6.6,0,6.7,0c0,0,0,24.9,0,25h-6.7v-11h-13.5v11h-6.7v-25H-588.5z"/>
	<path class="st0" d="M-651.7-14569.6v4.2h-10.2v20.7h-6.7v-20.7h-10.2v-4.2C-678.8-14569.6-651.7-14569.6-651.7-14569.6"/>
	<path class="st0" d="M-641.7-14565.3l-4.6,11.4h9.3L-641.7-14565.3z M-625.8-14544.6h-7.4l-2.2-5.4h-12.5c0,0-2.1,5.4-2.2,5.4h-7.4
		l11.8-25h8.2L-625.8-14544.6z"/>
	<rect x="-563.1" y="-14569.6" class="st0" width="6.7" height="25"/>
	<path class="st0" d="M-713.2-14569.6c0,0,0,10.1,0,10h13.5v-10c0,0,6.6,0,6.7,0c0,0,0,24.9,0,25h-6.7v-11h-13.5v11h-6.7v-25H-713.2
		z"/>
	<rect x="-687.8" y="-14569.6" class="st0" width="6.7" height="25"/>
	<path class="st0" d="M-626.1-14551.5c-0.6-1.7-0.9-3.5-0.9-5.3c-0.1-2.5,0.5-5.1,1.7-7.3c1.3-2.2,3.3-3.9,5.7-4.7
		c2.4-0.9,4.9-1.3,7.4-1.3c2.9,0,5.8,0.6,8.4,1.8c2.4,1,4.2,3.2,4.8,5.8c0.1,0.5,0.2,1.1,0.2,1.6h-7c0-0.7-0.1-1.3-0.4-1.9
		c-0.5-1.4-1.7-2.5-3.1-2.9c-2-0.6-4.2-0.6-6.2,0.1c-1.7,0.6-3,2-3.6,3.7s-0.9,3.5-0.9,5.2c0,1.5,0.2,3,0.6,4.4
		c0.5,1.8,1.9,3.3,3.6,3.9c1.1,0.4,2.4,0.6,3.6,0.7c1,0,2.1-0.2,3.1-0.5c1.3-0.4,2.4-1.4,2.9-2.6c0.4-0.8,0.6-1.8,0.5-2.7h7
		c0,0.8-0.2,1.6-0.3,2.4c-0.6,2.5-2.3,4.5-4.7,5.5c-2.7,1.1-5.6,1.7-8.6,1.7c-2.3,0-4.6-0.3-6.8-1
		C-622.2-14546-624.8-14548.4-626.1-14551.5"/>
</g>
<g>
	<rect x="0.1" y="112.4" class="st1" width="239.4" height="25.1"/>
	<g>
		<g>
			<path class="st2" d="M39.4,132.6h-3.2l-4.2-6.9h-1.2v6.9h-3.1v-12.1c0-1.3-0.7-2.1-2.1-2.3h-0.2v-0.8h6.1c1.7,0,6.9,0,6.9,4.2
				c0,2.1-1.2,3.4-3.6,3.8C35,125.4,39.4,132.6,39.4,132.6z M30.9,124.3h1.2c2.3,0,3.6-0.9,3.6-2.7c0-2-1.1-2.8-3.3-2.8
				c-1.4,0-1.4,0.2-1.4,1.8v3.8C31,124.3,30.9,124.3,30.9,124.3z"/>
			<path class="st2" d="M47.1,132.9c-3.8,0-6-2.2-6-6c0-3.5,1.8-5.3,5.2-5.3c3.1,0,4.6,1.5,4.6,4.4v0.2h-6.8
				c0.1,2.3,1.2,4.9,4.1,4.9c0.9,0,1.7-0.2,2.2-0.3l0.3-0.1v1.4h-0.1C50,132.4,48.8,132.9,47.1,132.9L47.1,132.9z M44.2,125h4
				c0-0.9-0.3-2.2-1.9-2.2C44.7,122.8,44.2,124.3,44.2,125z"/>
			<path class="st2" d="M56.6,132.6h-2.7v-12.7c0-1.5-0.3-1.8-1.6-1.8H52v-0.8l4.6-0.6v16C56.7,132.6,56.6,132.6,56.6,132.6z"/>
			<path class="st2" d="M63.9,132.6h-2.7V125c0-1.5-0.3-1.7-1.7-1.8h-0.2v-0.8l4.6-0.7C63.9,121.7,63.9,132.6,63.9,132.6z
				 M62.6,120.3c-0.9,0-1.7-0.7-1.7-1.6c0-0.8,0.7-1.6,1.7-1.6s1.7,0.7,1.7,1.6C64.2,119.6,63.5,120.3,62.6,120.3z"/>
			<path class="st2" d="M70.3,132.9c-1.9,0-3.4-1.3-3.4-2.7c0-2.2,2.2-3.5,6.3-3.6v-0.9c0-1.7-0.1-2.7-1.3-2.7
				c-1.3,0-1.5,0.8-1.5,2.1v0.2h-3.3V125c0.3-1.5,1.1-3.2,4.6-3.2c3.4,0,4.1,1.6,4.1,4v6.9h-2.7v-1.1
				C72.7,132.2,71.8,132.9,70.3,132.9L70.3,132.9z M73.2,127.7c-1.6,0.1-3.3,0.5-3.3,2c0,0.9,0.5,1.6,1.3,1.6c1.3,0,2-1.1,2-2.5
				V127.7z"/>
			<path class="st2" d="M84.8,132.9c-1.6,0-2.5-0.8-3.1-1.4l0,0l-1.6,1.2h-0.9V120c0-1.5-0.3-1.7-1.7-1.8h-0.2v-0.8l4.6-0.6v6.3
				c0.5-0.7,1.3-1.3,2.8-1.3c2.8,0,4.4,2,4.4,5.8C89.3,130.8,87.6,132.9,84.8,132.9L84.8,132.9z M84.1,123.2c-1.8,0-2.1,1.8-2.1,3.4
				v0.9c0,1.4,0.2,3.8,2,3.8c2,0,2.2-2.2,2.2-4.1C86.2,124.5,85.5,123.2,84.1,123.2z"/>
			<path class="st2" d="M95.2,132.6h-2.7v-12.7c0-1.5-0.3-1.8-1.6-1.8h-0.2v-0.8l4.6-0.6v16C95.3,132.6,95.2,132.6,95.2,132.6z"/>
			<path class="st2" d="M104.4,132.9c-3.8,0-6-2.2-6-6c0-3.5,1.8-5.3,5.2-5.3c3.1,0,4.6,1.5,4.6,4.4v0.2h-6.8
				c0.1,2.3,1.2,4.9,4.1,4.9c0.9,0,1.7-0.2,2.2-0.3l0.3-0.1v1.4h-0.1C107.4,132.4,106.1,132.9,104.4,132.9L104.4,132.9z M101.5,125
				h4c0-0.9-0.3-2.2-1.9-2.2C101.9,122.8,101.5,124.3,101.5,125z"/>
		</g>
		<g>
			<path class="st2" d="M135.7,132.9c-3.5,0-5.4-1.9-5.4-5.6c0-3.7,1.8-5.6,5.4-5.6c3.4,0,5.4,2.1,5.4,5.6
				C141,131,139.2,132.9,135.7,132.9z M135.7,122.8c-2.1,0-2.3,2.2-2.3,4.4c0,2.2,0.3,4.4,2.3,4.4c2.1,0,2.3-2.3,2.3-4.4
				C138,125,137.7,122.8,135.7,122.8z"/>
			<path class="st2" d="M146.9,132.6h-2.7v-12.7c0-1.5-0.3-1.8-1.6-1.8h-0.2v-0.8l4.6-0.6v16H146.9L146.9,132.6z"/>
			<path class="st2" d="M154.8,132.9c-3.4,0-3.4-3.1-3.4-4.7V125c0-1.5-0.3-1.7-1.7-1.8h-0.2v-0.8l4.6-0.7v6.9
				c0,2.1,0.9,2.4,1.8,2.4c1.5,0,2.4-1.8,2.4-3.6V125c0-1.4-0.3-1.7-1.7-1.8h-0.2v-0.8l4.6-0.7v10.9h-2.7v-1.9
				C157.5,132.1,156.3,132.9,154.8,132.9L154.8,132.9z"/>
			<path class="st2" d="M169,132.9c-2.1,0-3.8-0.2-3.8-3.1v-6.6h-1.9V122h1.9v-1.7l2.7-2.3v3.9h3.2v1.3H168v6.2c0,1.5,0.1,2,1.8,2
				c0.3,0,0.6,0,0.8-0.1h0.2v1.3h-0.2C170.2,132.8,169.5,132.9,169,132.9L169,132.9z"/>
			<path class="st2" d="M177.4,132.6h-2.7V125c0-1.5-0.3-1.7-1.7-1.8h-0.2v-0.8l4.6-0.7L177.4,132.6L177.4,132.6L177.4,132.6z
				 M176.1,120.3c-0.9,0-1.7-0.7-1.7-1.6c0-0.8,0.7-1.6,1.7-1.6s1.7,0.7,1.7,1.6C177.7,119.6,177,120.3,176.1,120.3z"/>
			<path class="st2" d="M185.6,132.9c-3.6,0-5.4-1.9-5.4-5.6c0-3.7,1.8-5.6,5.4-5.6c3.4,0,5.4,2.1,5.4,5.6
				C191,131,189.2,132.9,185.6,132.9z M185.6,122.8c-2.1,0-2.3,2.2-2.3,4.4c0,2.2,0.3,4.4,2.3,4.4c2.1,0,2.3-2.3,2.3-4.4
				C187.9,125,187.6,122.8,185.6,122.8z"/>
			<path class="st2" d="M203.7,132.6H201v-5.9c0-1.9-0.1-3.2-1.4-3.2c-1.4,0-2.7,1.9-2.7,3.5v5.6h-2.7V125c0-1.4-0.3-1.7-1.7-1.8
				h-0.2v-0.8l4.7-0.7v2.4c0.5-0.9,1.8-2.3,3.8-2.3s3.1,1.2,3.1,3.4v7.5L203.7,132.6L203.7,132.6z"/>
			<path class="st2" d="M209.4,132.9c-1.5,0-2.5-0.2-3.1-0.4h-0.1v-2.2l0.3,0.2c0.6,0.4,1.8,1.2,3.1,1.2c1.2,0,1.9-0.4,1.9-1.3
				s-1.1-1.4-2.2-2c-1.5-0.7-3.1-1.6-3.1-3.4c0-2,1.6-3.2,4.2-3.2c1.1,0,2,0.2,2.5,0.3l0.3,0.1v2.2l-0.4-0.3
				c-0.4-0.3-1.5-0.9-2.6-0.9c-0.4,0-1.5,0.1-1.5,1.1c0,0.8,0.9,1.3,2,1.9c1.5,0.7,3.2,1.7,3.2,3.7
				C213.9,131.7,212.2,132.9,209.4,132.9z"/>
			<path class="st2" d="M121.4,132.9c-1.5,0-2.9-0.3-4.2-0.6h-0.1V130l0.3,0.1c1.6,0.8,3.2,1.3,4.5,1.3c1.3,0,2.8-0.4,2.8-2.4
				c0-1.6-1.7-2.3-3.4-3.2c-2.1-0.9-4.4-2.1-4.4-4.7s2.1-4,5.6-4c1.4,0,2.7,0.2,3.9,0.4h0.2v2.1l-0.3-0.1c-1.4-0.6-2.9-0.9-4.2-0.9
				c-1.4,0-2.1,0.7-2.1,2c0,1.5,1.6,2.2,3.3,3.1c2.1,1.1,4.5,2.1,4.5,4.8C127.6,131.2,125.4,132.9,121.4,132.9z"/>
		</g>
	</g>
</g>
</svg>
